<?xml version="1.0" standalone="no"?>
<!DOCTYPE svg PUBLIC "-//W3C//DTD SVG 20010904//EN"
 "http://www.w3.org/TR/2001/REC-SVG-20010904/DTD/svg10.dtd">
<svg version="1.0" xmlns="http://www.w3.org/2000/svg"
 width="512.000000pt" height="512.000000pt" viewBox="0 0 512.000000 512.000000"
 preserveAspectRatio="xMidYMid meet">
<metadata>
Created by potrace 1.11, written by Peter Selinger 2001-2013
</metadata>
<g transform="translate(0.000000,512.000000) scale(0.100000,-0.100000)"
fill="#000000" stroke="none">
<path d="M2437 5025 c-1 -1 -42 -5 -92 -9 -49 -3 -101 -8 -115 -11 -14 -2 -52
-9 -85 -14 -88 -15 -111 -20 -200 -42 -80 -21 -243 -72 -280 -88 -11 -5 -71
-32 -132 -60 -590 -262 -1060 -773 -1293 -1401 -24 -66 -65 -201 -75 -248 -2
-9 -8 -37 -14 -62 -39 -173 -58 -366 -55 -560 2 -115 10 -255 18 -298 2 -9 9
-51 16 -92 75 -472 335 -976 681 -1319 234 -233 474 -395 799 -539 112 -49
360 -123 495 -147 17 -2 41 -7 54 -10 136 -27 449 -38 628 -21 74 7 202 25
223 31 8 2 31 7 50 10 210 34 572 174 760 296 25 16 52 32 60 36 21 9 142 94
158 110 7 7 16 13 20 13 4 0 23 15 43 33 20 17 61 52 90 77 170 143 366 380
495 600 110 187 231 475 259 619 2 9 10 43 18 76 14 58 19 84 33 169 3 21 7
48 10 60 23 120 23 527 -1 656 -2 14 -9 57 -15 95 -22 144 -97 398 -157 535
-49 110 -112 234 -159 311 -47 78 -149 226 -164 239 -3 3 -13 15 -21 27 -57
84 -263 292 -369 373 -25 19 -47 37 -50 41 -10 13 -149 107 -236 161 -184 114
-507 249 -654 274 -14 3 -39 9 -57 15 -17 5 -43 12 -57 14 -14 3 -52 9 -84 15
-98 16 -115 19 -187 26 -65 6 -352 13 -358 9z"/>
</g>
</svg>
